
<svg version="1.0" xmlns="http://www.w3.org/2000/svg"
 width="122.000000pt" height="105.000000pt" viewBox="0 0 700.000000 700.000000"
 preserveAspectRatio="xMidYMid meet" fill="#00bcff">
<g transform="translate(-170.000000,750.000000) scale(0.240000,-0.24000)" >
<path d="M1461 3042 c-5 -9 -12 -64 -15 -122 -4 -58 -11 -143 -16 -190 -5 -47
-12 -132 -15 -190 -20 -347 -76 -889 -95 -920 -6 -10 -30 -2 -105 35 -121 60
-182 69 -235 33 -31 -21 -35 -29 -38 -75 -3 -47 0 -55 33 -91 47 -53 145 -93
243 -100 39 -2 72 -8 72 -11 0 -14 -50 -240 -67 -304 -16 -61 -16 -70 -3 -95
37 -66 141 -22 174 74 8 25 23 102 32 172 9 70 18 133 20 140 4 14 50 -14 165
-100 35 -27 67 -48 72 -48 5 0 36 -23 68 -51 96 -83 191 -149 226 -155 75 -14
112 25 79 83 -9 15 -32 75 -52 133 -20 58 -44 123 -54 145 -49 112 -59 138
-55 145 2 4 22 10 44 13 24 3 71 25 116 53 42 27 86 54 98 61 21 12 21 12 -7
22 -37 15 -72 14 -136 -4 -111 -30 -152 -37 -161 -28 -27 27 -148 392 -184
552 -52 237 -63 319 -69 511 -6 208 -18 297 -44 318 -24 18 -80 15 -91 -6z
m99 -943 c19 -94 53 -204 113 -356 21 -56 37 -108 34 -115 -5 -13 -172 -58
-215 -58 -26 0 -26 0 -12 190 6 74 15 195 20 267 6 73 13 140 16 148 13 33 29
6 44 -76z m241 -689 c22 -52 38 -98 37 -102 -2 -5 -21 4 -43 19 -41 28 -163
96 -205 114 -23 10 -19 13 60 39 47 16 91 28 99 27 8 -1 31 -45 52 -97z"/>
<path d="M2149 2933 c-16 -19 -16 -4 -6 -463 13 -569 39 -883 92 -1103 41
-168 81 -233 138 -225 18 2 22 9 21 38 -1 19 -11 60 -22 90 -23 62 -64 241
-89 387 -15 84 -17 179 -18 658 0 509 -2 563 -17 591 -25 46 -73 59 -99 27z"/>
<path d="M3080 1741 c-68 -37 -139 -157 -147 -249 -5 -59 -4 -65 22 -92 37
-38 77 -40 110 -4 14 15 25 37 25 49 0 61 69 175 107 175 27 0 86 -74 103
-129 14 -45 15 -60 5 -90 -47 -135 -87 -276 -88 -313 -2 -37 1 -43 19 -46 28
-4 65 40 105 128 18 38 36 67 39 65 4 -3 13 -26 19 -52 14 -53 47 -128 70
-155 16 -21 81 -24 99 -6 25 25 8 110 -28 138 -20 16 -80 203 -80 252 0 34 34
105 90 184 47 67 49 91 14 133 -19 23 -34 31 -59 31 -43 0 -69 -26 -105 -103
l-27 -59 -16 26 c-9 14 -17 29 -17 34 0 19 -75 83 -109 92 -54 15 -112 11
-151 -9z"/>
<path d="M2752 1738 c-21 -27 -22 -63 -12 -273 10 -200 9 -219 -6 -236 -9 -11
-23 -19 -31 -19 -36 0 -65 146 -64 323 1 147 -9 181 -58 192 -86 19 -106 -64
-76 -310 16 -135 42 -215 82 -258 33 -34 102 -67 144 -67 21 0 29 -5 29 -17 1
-10 6 -64 13 -121 l13 -103 -25 7 c-55 14 -111 26 -256 50 -158 26 -247 27
-424 3 -88 -12 -350 -93 -461 -141 -108 -48 -293 -196 -342 -276 -58 -94 -62
-172 -8 -172 9 0 50 33 91 73 41 39 92 84 114 99 22 15 56 42 75 60 41 37 196
115 290 146 176 57 245 67 445 67 164 0 204 -3 290 -23 152 -36 191 -51 236
-88 46 -38 78 -43 102 -16 28 31 32 77 9 115 -16 28 -21 67 -32 235 -7 111 -9
223 -5 249 22 150 -17 465 -63 501 -9 6 -26 12 -38 12 -12 0 -26 -6 -32 -12z"/>

</g>
</svg>
